<svg width="20" height="20" viewBox="0 0 20 20" fill="none" xmlns="http://www.w3.org/2000/svg">
<path d="M15.2801 15.2825H13.0588V11.8018C13.0588 10.9718 13.042 9.90375 11.9013 9.90375C10.7432 9.90375 10.5663 10.8069 10.5663 11.7406V15.2825H8.34508V8.125H10.4788V9.10058H10.5076C10.8057 8.53808 11.5307 7.94437 12.6138 7.94437C14.8645 7.94437 15.2807 9.42567 15.2807 11.3538L15.2801 15.2825ZM5.83636 7.14562C5.12136 7.14562 4.54698 6.56687 4.54698 5.855C4.54698 5.14375 5.12198 4.56563 5.83636 4.56563C6.54886 4.56563 7.12636 5.14375 7.12636 5.855C7.12636 6.56687 6.54823 7.14562 5.83636 7.14562ZM6.95011 15.2825H4.72261V8.125H6.95011V15.2825ZM16.3913 2.5H3.60761C2.99573 2.5 2.50073 2.98375 2.50073 3.58063V16.4194C2.50073 17.0168 2.99573 17.5 3.60761 17.5H16.3895C17.0007 17.5 17.5007 17.0168 17.5007 16.4194V3.58063C17.5007 2.98375 17.0007 2.5 16.3895 2.5H16.3913Z" fill="#4338CA"/>
</svg>
